<svg width="360" height="1126" viewBox="0 0 360 1126" fill="none" xmlns="http://www.w3.org/2000/svg">
<rect width="360" height="1126" fill="#16141F"/>
<rect x="10" y="72" width="340" height="3" fill="#AC232D"/>
<path d="M114.472 37.664V32.72H123.352V44.144C123.352 48.368 121.368 50.48 117.4 50.48H111.352C107.384 50.48 105.4 48.368 105.4 44.144V24.8C105.4 20.576 107.384 18.464 111.352 18.464H117.4C121.368 18.464 123.352 20.576 123.352 24.8V27.728H116.968V23.984C116.968 23.728 116.872 23.504 116.68 23.312C116.52 23.12 116.312 23.024 116.056 23.024H113.032C112.776 23.024 112.552 23.12 112.36 23.312C112.2 23.504 112.12 23.728 112.12 23.984V44.912C112.12 45.168 112.2 45.392 112.36 45.584C112.552 45.776 112.776 45.872 113.032 45.872H116.056C116.312 45.872 116.52 45.776 116.68 45.584C116.872 45.392 116.968 45.168 116.968 44.912V37.664H114.472ZM145.344 24.8V44.144C145.344 48.368 143.36 50.48 139.392 50.48H133.008C129.04 50.48 127.056 48.368 127.056 44.144V24.8C127.056 20.576 129.04 18.464 133.008 18.464H139.392C143.36 18.464 145.344 20.576 145.344 24.8ZM138.624 44.912V23.984C138.624 23.728 138.528 23.504 138.336 23.312C138.176 23.12 137.968 23.024 137.712 23.024H134.688C134.432 23.024 134.208 23.12 134.016 23.312C133.856 23.504 133.776 23.728 133.776 23.984V44.912C133.776 45.168 133.856 45.392 134.016 45.584C134.208 45.776 134.432 45.872 134.688 45.872H137.712C137.968 45.872 138.176 45.776 138.336 45.584C138.528 45.392 138.624 45.168 138.624 44.912ZM162.642 18.944C166.61 18.944 168.594 21.056 168.594 25.28V43.664C168.594 47.888 166.61 50 162.642 50H150.306V18.944H162.642ZM161.874 44.432V24.464C161.874 24.208 161.778 23.984 161.586 23.792C161.426 23.6 161.218 23.504 160.962 23.504H157.026V45.392H160.962C161.218 45.392 161.426 45.296 161.586 45.104C161.778 44.912 161.874 44.688 161.874 44.432ZM192.378 37.664V32.72H201.258V44.144C201.258 48.368 199.274 50.48 195.306 50.48H189.258C185.29 50.48 183.306 48.368 183.306 44.144V24.8C183.306 20.576 185.29 18.464 189.258 18.464H195.306C199.274 18.464 201.258 20.576 201.258 24.8V27.728H194.874V23.984C194.874 23.728 194.778 23.504 194.586 23.312C194.426 23.12 194.218 23.024 193.962 23.024H190.938C190.682 23.024 190.458 23.12 190.266 23.312C190.106 23.504 190.026 23.728 190.026 23.984V44.912C190.026 45.168 190.106 45.392 190.266 45.584C190.458 45.776 190.682 45.872 190.938 45.872H193.962C194.218 45.872 194.426 45.776 194.586 45.584C194.778 45.392 194.874 45.168 194.874 44.912V37.664H192.378ZM222.963 18.944L216.291 38.672V50H209.571V38.672L202.899 18.944H209.235L212.931 31.904L216.627 18.944H222.963ZM232.494 50H225.774V24.8C225.774 20.576 227.758 18.464 231.726 18.464H235.278C237.614 18.464 239.278 19.232 240.27 20.768C241.198 19.232 242.862 18.464 245.262 18.464H248.814C252.782 18.464 254.766 20.576 254.766 24.8V50H248.046V24.224C248.046 23.968 247.95 23.744 247.758 23.552C247.598 23.36 247.39 23.264 247.134 23.264H244.542C244.286 23.264 244.062 23.36 243.87 23.552C243.71 23.744 243.63 23.968 243.63 24.224V50H236.91V24.224C236.91 23.968 236.814 23.744 236.622 23.552C236.462 23.36 236.254 23.264 235.998 23.264H233.406C233.15 23.264 232.926 23.36 232.734 23.552C232.574 23.744 232.494 23.968 232.494 24.224V50Z" fill="white"/>
<path d="M40.84 108.856V118H35.8V94.708H46.312V99.064H40.84V104.644H45.952V108.856H40.84ZM62.0808 104.824V113.608C62.0808 116.776 60.5928 118.36 57.6168 118.36H53.5488C50.5728 118.36 49.0848 116.776 49.0848 113.608V104.824C49.0848 101.656 50.5728 100.072 53.5488 100.072H57.6168C60.5928 100.072 62.0808 101.656 62.0808 104.824ZM57.2568 114.616V103.78C57.2568 103.588 57.1848 103.42 57.0408 103.276C56.9208 103.132 56.7648 103.06 56.5728 103.06H54.5928C54.4008 103.06 54.2328 103.132 54.0888 103.276C53.9688 103.42 53.9088 103.588 53.9088 103.78V114.616C53.9088 114.808 53.9688 114.976 54.0888 115.12C54.2328 115.264 54.4008 115.336 54.5928 115.336H56.5728C56.7648 115.336 56.9208 115.264 57.0408 115.12C57.1848 114.976 57.2568 114.808 57.2568 114.616ZM72.8502 100.072H73.7862V104.752H71.4102C70.5942 104.752 70.1862 105.172 70.1862 106.012V118H65.3622V100.432H69.7542V102.124C70.4502 100.756 71.4822 100.072 72.8502 100.072ZM91.7842 100.072C94.7602 100.072 96.2482 101.656 96.2482 104.824V118H91.4242V104.248C91.4242 104.056 91.3522 103.888 91.2082 103.744C91.0882 103.6 90.9322 103.528 90.7402 103.528H89.1922C89.0002 103.528 88.8322 103.6 88.6882 103.744C88.5682 103.888 88.5082 104.056 88.5082 104.248V118H83.6842V104.248C83.6842 104.056 83.6122 103.888 83.4682 103.744C83.3482 103.6 83.1922 103.528 83.0002 103.528H81.4522C81.2602 103.528 81.0922 103.6 80.9482 103.744C80.8282 103.888 80.7682 104.056 80.7682 104.248V118H75.9442V100.432H80.3362V101.332C81.0802 100.492 82.2082 100.072 83.7202 100.072H84.0442C85.8202 100.072 87.0562 100.624 87.7522 101.728C88.4962 100.624 89.7322 100.072 91.4602 100.072H91.7842ZM107.917 100.432H112.741V118H108.349V117.1C107.605 117.94 106.477 118.36 104.965 118.36H104.209C101.233 118.36 99.745 116.776 99.745 113.608V100.432H104.569V114.184C104.569 114.376 104.629 114.544 104.749 114.688C104.893 114.832 105.061 114.904 105.253 114.904H107.233C107.425 114.904 107.581 114.832 107.701 114.688C107.845 114.544 107.917 114.376 107.917 114.184V100.432ZM120.846 118H116.022V94.708H120.846V118ZM133.001 100.432H137.069V118H133.001V116.704C132.257 117.808 131.021 118.36 129.293 118.36H128.537C125.561 118.36 124.073 116.776 124.073 113.608V104.824C124.073 101.656 125.561 100.072 128.537 100.072H129.293C131.021 100.072 132.257 100.624 133.001 101.728V100.432ZM132.245 114.184V104.248C132.245 104.056 132.173 103.888 132.029 103.744C131.909 103.6 131.753 103.528 131.561 103.528H129.581C129.389 103.528 129.221 103.6 129.077 103.744C128.957 103.888 128.897 104.056 128.897 104.248V114.184C128.897 114.376 128.957 114.544 129.077 114.688C129.221 114.832 129.389 114.904 129.581 114.904H131.561C131.753 114.904 131.909 114.832 132.029 114.688C132.173 114.544 132.245 114.376 132.245 114.184ZM147.838 100.072H148.774V104.752H146.398C145.582 104.752 145.174 105.172 145.174 106.012V118H140.35V100.432H144.742V102.124C145.438 100.756 146.47 100.072 147.838 100.072ZM155.829 98.236C155.325 98.74 154.713 98.992 153.993 98.992C153.273 98.992 152.649 98.74 152.121 98.236C151.593 97.708 151.329 97.084 151.329 96.364C151.329 95.62 151.593 94.996 152.121 94.492C152.649 93.964 153.273 93.7 153.993 93.7C154.713 93.7 155.325 93.964 155.829 94.492C156.357 94.996 156.621 95.62 156.621 96.364C156.621 97.108 156.357 97.732 155.829 98.236ZM151.581 118V100.432H156.405V118H151.581ZM172.788 104.824V113.608C172.788 116.776 171.3 118.36 168.324 118.36H164.256C161.28 118.36 159.792 116.776 159.792 113.608V104.824C159.792 101.656 161.28 100.072 164.256 100.072H168.324C171.3 100.072 172.788 101.656 172.788 104.824ZM167.964 114.616V103.78C167.964 103.588 167.892 103.42 167.748 103.276C167.628 103.132 167.472 103.06 167.28 103.06H165.3C165.108 103.06 164.94 103.132 164.796 103.276C164.676 103.42 164.616 103.588 164.616 103.78V114.616C164.616 114.808 164.676 114.976 164.796 115.12C164.94 115.264 165.108 115.336 165.3 115.336H167.28C167.472 115.336 167.628 115.264 167.748 115.12C167.892 114.976 167.964 114.808 167.964 114.616ZM188.567 100.072C189.791 100.072 190.775 100.36 191.519 100.936V94.708H196.343V118H192.275V116.704C191.531 117.808 190.295 118.36 188.567 118.36H187.811C184.835 118.36 183.347 116.776 183.347 113.608V104.824C183.347 101.656 184.835 100.072 187.811 100.072H188.567ZM191.519 114.184V104.248C191.519 104.056 191.447 103.888 191.303 103.744C191.183 103.6 191.027 103.528 190.835 103.528H188.855C188.663 103.528 188.495 103.6 188.351 103.744C188.231 103.888 188.171 104.056 188.171 104.248V114.184C188.171 114.376 188.231 114.544 188.351 114.688C188.495 114.832 188.663 114.904 188.855 114.904H190.835C191.027 114.904 191.183 114.832 191.303 114.688C191.447 114.544 191.519 114.376 191.519 114.184ZM208.156 100.072C211.132 100.072 212.62 101.656 212.62 104.824V110.512H204.448V114.184C204.448 114.376 204.508 114.544 204.628 114.688C204.772 114.832 204.94 114.904 205.132 114.904H207.112C207.304 114.904 207.46 114.832 207.58 114.688C207.724 114.544 207.796 114.376 207.796 114.184V112.24H212.62V113.608C212.62 116.776 211.132 118.36 208.156 118.36H204.088C201.112 118.36 199.624 116.776 199.624 113.608V104.824C199.624 101.656 201.112 100.072 204.088 100.072H208.156ZM204.448 107.344H207.796V104.104C207.796 103.912 207.724 103.744 207.58 103.6C207.46 103.456 207.304 103.384 207.112 103.384H205.132C204.94 103.384 204.772 103.456 204.628 103.6C204.508 103.744 204.448 103.912 204.448 104.104V107.344ZM230.034 100.072H230.97V104.752H228.594C227.778 104.752 227.37 105.172 227.37 106.012V118H222.546V100.432H226.938V102.124C227.634 100.756 228.666 100.072 230.034 100.072ZM241.66 100.072C244.636 100.072 246.124 101.656 246.124 104.824V110.512H237.952V114.184C237.952 114.376 238.012 114.544 238.132 114.688C238.276 114.832 238.444 114.904 238.636 114.904H240.616C240.808 114.904 240.964 114.832 241.084 114.688C241.228 114.544 241.3 114.376 241.3 114.184V112.24H246.124V113.608C246.124 116.776 244.636 118.36 241.66 118.36H237.592C234.616 118.36 233.128 116.776 233.128 113.608V104.824C233.128 101.656 234.616 100.072 237.592 100.072H241.66ZM237.952 107.344H241.3V104.104C241.3 103.912 241.228 103.744 241.084 103.6C240.964 103.456 240.808 103.384 240.616 103.384H238.636C238.444 103.384 238.276 103.456 238.132 103.6C238.012 103.744 237.952 103.912 237.952 104.104V107.344ZM261.768 100.432V119.332C261.768 122.5 260.28 124.084 257.304 124.084H253.704C250.728 124.084 249.24 122.5 249.24 119.332V118.756H253.596V119.908C253.596 120.1 253.656 120.268 253.776 120.412C253.92 120.556 254.088 120.628 254.28 120.628H256.26C256.452 120.628 256.608 120.556 256.728 120.412C256.872 120.268 256.944 120.1 256.944 119.908V116.308C256.2 116.884 255.216 117.172 253.992 117.172H253.236C250.26 117.172 248.772 115.588 248.772 112.42V104.824C248.772 101.656 250.26 100.072 253.236 100.072H253.992C255.72 100.072 256.956 100.624 257.7 101.728V100.432H261.768ZM256.944 112.996V104.248C256.944 104.056 256.872 103.888 256.728 103.744C256.608 103.6 256.452 103.528 256.26 103.528H254.28C254.088 103.528 253.92 103.6 253.776 103.744C253.656 103.888 253.596 104.056 253.596 104.248V112.996C253.596 113.188 253.656 113.356 253.776 113.5C253.92 113.644 254.088 113.716 254.28 113.716H256.26C256.452 113.716 256.608 113.644 256.728 113.5C256.872 113.356 256.944 113.188 256.944 112.996ZM269.946 98.236C269.442 98.74 268.83 98.992 268.11 98.992C267.39 98.992 266.766 98.74 266.238 98.236C265.71 97.708 265.446 97.084 265.446 96.364C265.446 95.62 265.71 94.996 266.238 94.492C266.766 93.964 267.39 93.7 268.11 93.7C268.83 93.7 269.442 93.964 269.946 94.492C270.474 94.996 270.738 95.62 270.738 96.364C270.738 97.108 270.474 97.732 269.946 98.236ZM265.698 118V100.432H270.522V118H265.698ZM282.189 106.984C285.165 106.984 286.653 108.568 286.653 111.736V113.608C286.653 116.776 285.165 118.36 282.189 118.36H278.193C275.217 118.36 273.729 116.776 273.729 113.608V112.492H278.193V114.076C278.193 114.268 278.253 114.436 278.373 114.58C278.517 114.724 278.685 114.796 278.877 114.796H281.829C282.021 114.796 282.177 114.724 282.297 114.58C282.441 114.436 282.513 114.268 282.513 114.076V111.916C282.513 111.724 282.441 111.556 282.297 111.412C282.177 111.268 282.021 111.196 281.829 111.196H278.121C275.145 111.196 273.657 109.612 273.657 106.444V104.824C273.657 101.656 275.145 100.072 278.121 100.072H281.901C284.877 100.072 286.365 101.656 286.365 104.824V105.472H281.901V104.356C281.901 104.164 281.829 103.996 281.685 103.852C281.565 103.708 281.409 103.636 281.217 103.636H278.481C278.289 103.636 278.121 103.708 277.977 103.852C277.857 103.996 277.797 104.164 277.797 104.356V106.264C277.797 106.456 277.857 106.624 277.977 106.768C278.121 106.912 278.289 106.984 278.481 106.984H282.189ZM295.891 115.228H297.331V118.36H293.947C290.971 118.36 289.483 116.776 289.483 113.608V96.616H294.307V100.432H297.331V103.924H294.307V113.5C294.307 114.172 294.439 114.628 294.703 114.868C294.967 115.108 295.363 115.228 295.891 115.228ZM307.342 100.072H308.278V104.752H305.902C305.086 104.752 304.678 105.172 304.678 106.012V118H299.854V100.432H304.246V102.124C304.942 100.756 305.974 100.072 307.342 100.072ZM323.432 104.824V113.608C323.432 116.776 321.944 118.36 318.968 118.36H314.9C311.924 118.36 310.436 116.776 310.436 113.608V104.824C310.436 101.656 311.924 100.072 314.9 100.072H318.968C321.944 100.072 323.432 101.656 323.432 104.824ZM318.608 114.616V103.78C318.608 103.588 318.536 103.42 318.392 103.276C318.272 103.132 318.116 103.06 317.924 103.06H315.944C315.752 103.06 315.584 103.132 315.44 103.276C315.32 103.42 315.26 103.588 315.26 103.78V114.616C315.26 114.808 315.32 114.976 315.44 115.12C315.584 115.264 315.752 115.336 315.944 115.336H317.924C318.116 115.336 318.272 115.264 318.392 115.12C318.536 114.976 318.608 114.808 318.608 114.616Z" fill="white"/>
<path d="M137.156 183H132.116V163.668C132.116 163.476 132.044 163.308 131.9 163.164C131.78 163.02 131.624 162.948 131.432 162.948H129.488C129.296 162.948 129.128 163.02 128.984 163.164C128.864 163.308 128.804 163.476 128.804 163.668V183H123.764V164.1C123.764 160.932 125.252 159.348 128.228 159.348H132.692C135.668 159.348 137.156 160.932 137.156 164.1V183ZM153.35 169.824V178.608C153.35 181.776 151.862 183.36 148.886 183.36H144.818C141.842 183.36 140.354 181.776 140.354 178.608V169.824C140.354 166.656 141.842 165.072 144.818 165.072H148.886C151.862 165.072 153.35 166.656 153.35 169.824ZM148.526 179.616V168.78C148.526 168.588 148.454 168.42 148.31 168.276C148.19 168.132 148.034 168.06 147.842 168.06H145.862C145.67 168.06 145.502 168.132 145.358 168.276C145.238 168.42 145.178 168.588 145.178 168.78V179.616C145.178 179.808 145.238 179.976 145.358 180.12C145.502 180.264 145.67 180.336 145.862 180.336H147.842C148.034 180.336 148.19 180.264 148.31 180.12C148.454 179.976 148.526 179.808 148.526 179.616ZM172.472 165.072C175.448 165.072 176.936 166.656 176.936 169.824V183H172.112V169.248C172.112 169.056 172.04 168.888 171.896 168.744C171.776 168.6 171.62 168.528 171.428 168.528H169.88C169.688 168.528 169.52 168.6 169.376 168.744C169.256 168.888 169.196 169.056 169.196 169.248V183H164.372V169.248C164.372 169.056 164.3 168.888 164.156 168.744C164.036 168.6 163.88 168.528 163.688 168.528H162.14C161.948 168.528 161.78 168.6 161.636 168.744C161.516 168.888 161.456 169.056 161.456 169.248V183H156.632V165.432H161.024V166.332C161.768 165.492 162.896 165.072 164.408 165.072H164.732C166.508 165.072 167.744 165.624 168.44 166.728C169.184 165.624 170.42 165.072 172.148 165.072H172.472ZM188.209 165.072H188.965C191.941 165.072 193.429 166.656 193.429 169.824V178.608C193.429 181.776 191.941 183.36 188.965 183.36H188.209C186.481 183.36 185.245 182.808 184.501 181.704V183H180.433V159.708H185.257V165.936C186.025 165.36 187.009 165.072 188.209 165.072ZM185.257 169.248V179.184C185.257 179.376 185.317 179.544 185.437 179.688C185.581 179.832 185.749 179.904 185.941 179.904H187.921C188.113 179.904 188.269 179.832 188.389 179.688C188.533 179.544 188.605 179.376 188.605 179.184V169.248C188.605 169.056 188.533 168.888 188.389 168.744C188.269 168.6 188.113 168.528 187.921 168.528H185.941C185.749 168.528 185.581 168.6 185.437 168.744C185.317 168.888 185.257 169.056 185.257 169.248ZM204.198 165.072H205.134V169.752H202.758C201.942 169.752 201.534 170.172 201.534 171.012V183H196.71V165.432H201.102V167.124C201.798 165.756 202.83 165.072 204.198 165.072ZM215.824 165.072C218.8 165.072 220.288 166.656 220.288 169.824V175.512H212.116V179.184C212.116 179.376 212.176 179.544 212.296 179.688C212.44 179.832 212.608 179.904 212.8 179.904H214.78C214.972 179.904 215.128 179.832 215.248 179.688C215.392 179.544 215.464 179.376 215.464 179.184V177.24H220.288V178.608C220.288 181.776 218.8 183.36 215.824 183.36H211.756C208.78 183.36 207.292 181.776 207.292 178.608V169.824C207.292 166.656 208.78 165.072 211.756 165.072H215.824ZM212.116 172.344H215.464V169.104C215.464 168.912 215.392 168.744 215.248 168.6C215.128 168.456 214.972 168.384 214.78 168.384H212.8C212.608 168.384 212.44 168.456 212.296 168.6C212.176 168.744 212.116 168.912 212.116 169.104V172.344ZM231.216 171.984C234.192 171.984 235.68 173.568 235.68 176.736V178.608C235.68 181.776 234.192 183.36 231.216 183.36H227.22C224.244 183.36 222.756 181.776 222.756 178.608V177.492H227.22V179.076C227.22 179.268 227.28 179.436 227.4 179.58C227.544 179.724 227.712 179.796 227.904 179.796H230.856C231.048 179.796 231.204 179.724 231.324 179.58C231.468 179.436 231.54 179.268 231.54 179.076V176.916C231.54 176.724 231.468 176.556 231.324 176.412C231.204 176.268 231.048 176.196 230.856 176.196H227.148C224.172 176.196 222.684 174.612 222.684 171.444V169.824C222.684 166.656 224.172 165.072 227.148 165.072H230.928C233.904 165.072 235.392 166.656 235.392 169.824V170.472H230.928V169.356C230.928 169.164 230.856 168.996 230.712 168.852C230.592 168.708 230.436 168.636 230.244 168.636H227.508C227.316 168.636 227.148 168.708 227.004 168.852C226.884 168.996 226.824 169.164 226.824 169.356V171.264C226.824 171.456 226.884 171.624 227.004 171.768C227.148 171.912 227.316 171.984 227.508 171.984H231.216Z" fill="white"/>
<rect x="12" y="204" width="334" height="36" fill="#D9D9D9" stroke="#AC232D" stroke-width="4"/>
<path d="M135.052 261.348C138.028 261.348 139.516 262.932 139.516 266.1V285H134.476V277.188H130.84V285H125.8V266.1C125.8 262.932 127.288 261.348 130.264 261.348H135.052ZM130.84 273.3H134.476V265.488C134.476 265.296 134.404 265.128 134.26 264.984C134.14 264.84 133.984 264.768 133.792 264.768H131.524C131.332 264.768 131.164 264.84 131.02 264.984C130.9 265.128 130.84 265.296 130.84 265.488V273.3ZM151.625 285.36H150.869C149.645 285.36 148.661 285.072 147.917 284.496V290.724H143.093V267.432H147.161V268.728C147.905 267.624 149.141 267.072 150.869 267.072H151.625C154.601 267.072 156.089 268.656 156.089 271.824V280.608C156.089 283.776 154.601 285.36 151.625 285.36ZM147.917 271.248V281.184C147.917 281.376 147.977 281.544 148.097 281.688C148.241 281.832 148.409 281.904 148.601 281.904H150.581C150.773 281.904 150.929 281.832 151.049 281.688C151.193 281.544 151.265 281.376 151.265 281.184V271.248C151.265 271.056 151.193 270.888 151.049 270.744C150.929 270.6 150.773 270.528 150.581 270.528H148.601C148.409 270.528 148.241 270.6 148.097 270.744C147.977 270.888 147.917 271.056 147.917 271.248ZM167.902 267.072C170.878 267.072 172.366 268.656 172.366 271.824V277.512H164.194V281.184C164.194 281.376 164.254 281.544 164.374 281.688C164.518 281.832 164.686 281.904 164.878 281.904H166.858C167.05 281.904 167.206 281.832 167.326 281.688C167.47 281.544 167.542 281.376 167.542 281.184V279.24H172.366V280.608C172.366 283.776 170.878 285.36 167.902 285.36H163.834C160.858 285.36 159.37 283.776 159.37 280.608V271.824C159.37 268.656 160.858 267.072 163.834 267.072H167.902ZM164.194 274.344H167.542V271.104C167.542 270.912 167.47 270.744 167.326 270.6C167.206 270.456 167.05 270.384 166.858 270.384H164.878C164.686 270.384 164.518 270.456 164.374 270.6C164.254 270.744 164.194 270.912 164.194 271.104V274.344ZM179.839 285H175.015V261.708H179.839V285ZM187.889 285H183.065V261.708H187.889V285ZM196.012 265.236C195.508 265.74 194.896 265.992 194.176 265.992C193.456 265.992 192.832 265.74 192.304 265.236C191.776 264.708 191.512 264.084 191.512 263.364C191.512 262.62 191.776 261.996 192.304 261.492C192.832 260.964 193.456 260.7 194.176 260.7C194.896 260.7 195.508 260.964 196.012 261.492C196.54 261.996 196.804 262.62 196.804 263.364C196.804 264.108 196.54 264.732 196.012 265.236ZM191.764 285V267.432H196.588V285H191.764ZM205.195 267.072C206.419 267.072 207.403 267.36 208.147 267.936V261.708H212.971V285H208.903V283.704C208.159 284.808 206.923 285.36 205.195 285.36H204.439C201.463 285.36 199.975 283.776 199.975 280.608V271.824C199.975 268.656 201.463 267.072 204.439 267.072H205.195ZM208.147 281.184V271.248C208.147 271.056 208.075 270.888 207.931 270.744C207.811 270.6 207.655 270.528 207.463 270.528H205.483C205.291 270.528 205.123 270.6 204.979 270.744C204.859 270.888 204.799 271.056 204.799 271.248V281.184C204.799 281.376 204.859 281.544 204.979 281.688C205.123 281.832 205.291 281.904 205.483 281.904H207.463C207.655 281.904 207.811 281.832 207.931 281.688C208.075 281.544 208.147 281.376 208.147 281.184ZM229.249 271.824V280.608C229.249 283.776 227.761 285.36 224.785 285.36H220.717C217.741 285.36 216.253 283.776 216.253 280.608V271.824C216.253 268.656 217.741 267.072 220.717 267.072H224.785C227.761 267.072 229.249 268.656 229.249 271.824ZM224.425 281.616V270.78C224.425 270.588 224.353 270.42 224.209 270.276C224.089 270.132 223.933 270.06 223.741 270.06H221.761C221.569 270.06 221.401 270.132 221.257 270.276C221.137 270.42 221.077 270.588 221.077 270.78V281.616C221.077 281.808 221.137 281.976 221.257 282.12C221.401 282.264 221.569 282.336 221.761 282.336H223.741C223.933 282.336 224.089 282.264 224.209 282.12C224.353 281.976 224.425 281.808 224.425 281.616Z" fill="white"/>
<rect x="14" y="306" width="334" height="36" fill="#D9D9D9" stroke="#AC232D" stroke-width="4"/>
<path d="M128.84 382.824H134.42V387H123.8V363.708H134.42V367.812H128.84V373.284H134.06V377.244H128.84V382.824ZM149.827 374.544V378.396H137.551V374.544H149.827ZM169.237 369.072C172.213 369.072 173.701 370.656 173.701 373.824V387H168.877V373.248C168.877 373.056 168.805 372.888 168.661 372.744C168.541 372.6 168.385 372.528 168.193 372.528H166.645C166.453 372.528 166.285 372.6 166.141 372.744C166.021 372.888 165.961 373.056 165.961 373.248V387H161.137V373.248C161.137 373.056 161.065 372.888 160.921 372.744C160.801 372.6 160.645 372.528 160.453 372.528H158.905C158.713 372.528 158.545 372.6 158.401 372.744C158.281 372.888 158.221 373.056 158.221 373.248V387H153.397V369.432H157.789V370.332C158.533 369.492 159.661 369.072 161.173 369.072H161.497C163.273 369.072 164.509 369.624 165.205 370.728C165.949 369.624 167.185 369.072 168.913 369.072H169.237ZM186.126 369.432H190.194V387H186.126V385.704C185.382 386.808 184.146 387.36 182.418 387.36H181.662C178.686 387.36 177.198 385.776 177.198 382.608V373.824C177.198 370.656 178.686 369.072 181.662 369.072H182.418C184.146 369.072 185.382 369.624 186.126 370.728V369.432ZM185.37 383.184V373.248C185.37 373.056 185.298 372.888 185.154 372.744C185.034 372.6 184.878 372.528 184.686 372.528H182.706C182.514 372.528 182.346 372.6 182.202 372.744C182.082 372.888 182.022 373.056 182.022 373.248V383.184C182.022 383.376 182.082 383.544 182.202 383.688C182.346 383.832 182.514 383.904 182.706 383.904H184.686C184.878 383.904 185.034 383.832 185.154 383.688C185.298 383.544 185.37 383.376 185.37 383.184ZM198.371 367.236C197.867 367.74 197.255 367.992 196.535 367.992C195.815 367.992 195.191 367.74 194.663 367.236C194.135 366.708 193.871 366.084 193.871 365.364C193.871 364.62 194.135 363.996 194.663 363.492C195.191 362.964 195.815 362.7 196.535 362.7C197.255 362.7 197.867 362.964 198.371 363.492C198.899 363.996 199.163 364.62 199.163 365.364C199.163 366.108 198.899 366.732 198.371 367.236ZM194.123 387V369.432H198.947V387H194.123ZM207.159 387H202.335V363.708H207.159V387Z" fill="white"/>
<rect x="12" y="408" width="334" height="36" fill="#D9D9D9" stroke="#AC232D" stroke-width="4"/>
<rect x="11" y="510" width="334" height="36" fill="#D9D9D9" stroke="#AC232D" stroke-width="4"/>
<path d="M52.028 468.66C51.5 468.66 51.104 468.78 50.84 469.02C50.576 469.26 50.444 469.716 50.444 470.388V471.432H53.468V475.068H50.444V489H45.62V470.1C45.62 466.932 47.108 465.348 50.084 465.348H53.468V468.66H52.028ZM64.1364 471.072C67.1124 471.072 68.6004 472.656 68.6004 475.824V481.512H60.4284V485.184C60.4284 485.376 60.4884 485.544 60.6084 485.688C60.7524 485.832 60.9204 485.904 61.1124 485.904H63.0924C63.2844 485.904 63.4404 485.832 63.5604 485.688C63.7044 485.544 63.7764 485.376 63.7764 485.184V483.24H68.6004V484.608C68.6004 487.776 67.1124 489.36 64.1364 489.36H60.0684C57.0924 489.36 55.6044 487.776 55.6044 484.608V475.824C55.6044 472.656 57.0924 471.072 60.0684 471.072H64.1364ZM60.4284 478.344H63.7764V475.104C63.7764 474.912 63.7044 474.744 63.5604 474.6C63.4404 474.456 63.2844 474.384 63.0924 474.384H61.1124C60.9204 474.384 60.7524 474.456 60.6084 474.6C60.4884 474.744 60.4284 474.912 60.4284 475.104V478.344ZM84.2449 478.344H79.4209V475.248C79.4209 475.056 79.3489 474.888 79.2049 474.744C79.0849 474.6 78.9289 474.528 78.7369 474.528H76.7569C76.5649 474.528 76.3969 474.6 76.2529 474.744C76.1329 474.888 76.0729 475.056 76.0729 475.248V485.184C76.0729 485.376 76.1329 485.544 76.2529 485.688C76.3969 485.832 76.5649 485.904 76.7569 485.904H78.7369C78.9289 485.904 79.0849 485.832 79.2049 485.688C79.3489 485.544 79.4209 485.376 79.4209 485.184V482.088H84.2449V484.608C84.2449 487.776 82.7569 489.36 79.7809 489.36H75.7129C72.7369 489.36 71.2489 487.776 71.2489 484.608V475.824C71.2489 472.656 72.7369 471.072 75.7129 471.072H79.7809C82.7569 471.072 84.2449 472.656 84.2449 475.824V478.344ZM92.1393 489H87.3153V465.708H92.1393V471.936C92.8593 471.36 93.8433 471.072 95.0913 471.072H95.8473C98.8233 471.072 100.311 472.656 100.311 475.824V489H95.4873V475.248C95.4873 475.056 95.4153 474.888 95.2713 474.744C95.1513 474.6 94.9953 474.528 94.8033 474.528H92.8233C92.4153 474.528 92.1873 474.744 92.1393 475.176V489ZM112.521 471.432H116.589V489H112.521V487.704C111.777 488.808 110.541 489.36 108.813 489.36H108.057C105.081 489.36 103.593 487.776 103.593 484.608V475.824C103.593 472.656 105.081 471.072 108.057 471.072H108.813C110.541 471.072 111.777 471.624 112.521 472.728V471.432ZM111.765 485.184V475.248C111.765 475.056 111.693 474.888 111.549 474.744C111.429 474.6 111.273 474.528 111.081 474.528H109.101C108.909 474.528 108.741 474.6 108.597 474.744C108.477 474.888 108.417 475.056 108.417 475.248V485.184C108.417 485.376 108.477 485.544 108.597 485.688C108.741 485.832 108.909 485.904 109.101 485.904H111.081C111.273 485.904 111.429 485.832 111.549 485.688C111.693 485.544 111.765 485.376 111.765 485.184ZM132.367 471.072C133.591 471.072 134.575 471.36 135.319 471.936V465.708H140.143V489H136.075V487.704C135.331 488.808 134.095 489.36 132.367 489.36H131.611C128.635 489.36 127.147 487.776 127.147 484.608V475.824C127.147 472.656 128.635 471.072 131.611 471.072H132.367ZM135.319 485.184V475.248C135.319 475.056 135.247 474.888 135.103 474.744C134.983 474.6 134.827 474.528 134.635 474.528H132.655C132.463 474.528 132.295 474.6 132.151 474.744C132.031 474.888 131.971 475.056 131.971 475.248V485.184C131.971 485.376 132.031 485.544 132.151 485.688C132.295 485.832 132.463 485.904 132.655 485.904H134.635C134.827 485.904 134.983 485.832 135.103 485.688C135.247 485.544 135.319 485.376 135.319 485.184ZM151.957 471.072C154.933 471.072 156.421 472.656 156.421 475.824V481.512H148.249V485.184C148.249 485.376 148.309 485.544 148.429 485.688C148.573 485.832 148.741 485.904 148.933 485.904H150.913C151.105 485.904 151.261 485.832 151.381 485.688C151.525 485.544 151.597 485.376 151.597 485.184V483.24H156.421V484.608C156.421 487.776 154.933 489.36 151.957 489.36H147.889C144.913 489.36 143.425 487.776 143.425 484.608V475.824C143.425 472.656 144.913 471.072 147.889 471.072H151.957ZM148.249 478.344H151.597V475.104C151.597 474.912 151.525 474.744 151.381 474.6C151.261 474.456 151.105 474.384 150.913 474.384H148.933C148.741 474.384 148.573 474.456 148.429 474.6C148.309 474.744 148.249 474.912 148.249 475.104V478.344ZM171.171 489H166.347V471.432H170.739V472.332C171.483 471.492 172.611 471.072 174.123 471.072H174.879C177.855 471.072 179.343 472.656 179.343 475.824V489H174.519V475.248C174.519 475.056 174.447 474.888 174.303 474.744C174.183 474.6 174.027 474.528 173.835 474.528H171.855C171.663 474.528 171.495 474.6 171.351 474.744C171.231 474.888 171.171 475.056 171.171 475.248V489ZM191.552 471.432H195.62V489H191.552V487.704C190.808 488.808 189.572 489.36 187.844 489.36H187.088C184.112 489.36 182.624 487.776 182.624 484.608V475.824C182.624 472.656 184.112 471.072 187.088 471.072H187.844C189.572 471.072 190.808 471.624 191.552 472.728V471.432ZM190.796 485.184V475.248C190.796 475.056 190.724 474.888 190.58 474.744C190.46 474.6 190.304 474.528 190.112 474.528H188.132C187.94 474.528 187.772 474.6 187.628 474.744C187.508 474.888 187.448 475.056 187.448 475.248V485.184C187.448 485.376 187.508 485.544 187.628 485.688C187.772 485.832 187.94 485.904 188.132 485.904H190.112C190.304 485.904 190.46 485.832 190.58 485.688C190.724 485.544 190.796 485.376 190.796 485.184ZM211.897 478.344H207.073V475.248C207.073 475.056 207.001 474.888 206.857 474.744C206.737 474.6 206.581 474.528 206.389 474.528H204.409C204.217 474.528 204.049 474.6 203.905 474.744C203.785 474.888 203.725 475.056 203.725 475.248V485.184C203.725 485.376 203.785 485.544 203.905 485.688C204.049 485.832 204.217 485.904 204.409 485.904H206.389C206.581 485.904 206.737 485.832 206.857 485.688C207.001 485.544 207.073 485.376 207.073 485.184V482.088H211.897V484.608C211.897 487.776 210.409 489.36 207.433 489.36H203.365C200.389 489.36 198.901 487.776 198.901 484.608V475.824C198.901 472.656 200.389 471.072 203.365 471.072H207.433C210.409 471.072 211.897 472.656 211.897 475.824V478.344ZM219.864 469.236C219.36 469.74 218.748 469.992 218.028 469.992C217.308 469.992 216.684 469.74 216.156 469.236C215.628 468.708 215.364 468.084 215.364 467.364C215.364 466.62 215.628 465.996 216.156 465.492C216.684 464.964 217.308 464.7 218.028 464.7C218.748 464.7 219.36 464.964 219.864 465.492C220.392 465.996 220.656 466.62 220.656 467.364C220.656 468.108 220.392 468.732 219.864 469.236ZM215.616 489V471.432H220.44V489H215.616ZM239.667 471.072C242.643 471.072 244.131 472.656 244.131 475.824V489H239.307V475.248C239.307 475.056 239.235 474.888 239.091 474.744C238.971 474.6 238.815 474.528 238.623 474.528H237.075C236.883 474.528 236.715 474.6 236.571 474.744C236.451 474.888 236.391 475.056 236.391 475.248V489H231.567V475.248C231.567 475.056 231.495 474.888 231.351 474.744C231.231 474.6 231.075 474.528 230.883 474.528H229.335C229.143 474.528 228.975 474.6 228.831 474.744C228.711 474.888 228.651 475.056 228.651 475.248V489H223.827V471.432H228.219V472.332C228.963 471.492 230.091 471.072 231.603 471.072H231.927C233.703 471.072 234.939 471.624 235.635 472.728C236.379 471.624 237.615 471.072 239.343 471.072H239.667ZM252.524 469.236C252.02 469.74 251.408 469.992 250.688 469.992C249.968 469.992 249.344 469.74 248.816 469.236C248.288 468.708 248.024 468.084 248.024 467.364C248.024 466.62 248.288 465.996 248.816 465.492C249.344 464.964 249.968 464.7 250.688 464.7C251.408 464.7 252.02 464.964 252.524 465.492C253.052 465.996 253.316 466.62 253.316 467.364C253.316 468.108 253.052 468.732 252.524 469.236ZM248.276 489V471.432H253.1V489H248.276ZM265.019 471.072C267.995 471.072 269.483 472.656 269.483 475.824V481.512H261.311V485.184C261.311 485.376 261.371 485.544 261.491 485.688C261.635 485.832 261.803 485.904 261.995 485.904H263.975C264.167 485.904 264.323 485.832 264.443 485.688C264.587 485.544 264.659 485.376 264.659 485.184V483.24H269.483V484.608C269.483 487.776 267.995 489.36 265.019 489.36H260.951C257.975 489.36 256.487 487.776 256.487 484.608V475.824C256.487 472.656 257.975 471.072 260.951 471.072H265.019ZM261.311 478.344H264.659V475.104C264.659 474.912 264.587 474.744 264.443 474.6C264.323 474.456 264.167 474.384 263.975 474.384H261.995C261.803 474.384 261.635 474.456 261.491 474.6C261.371 474.744 261.311 474.912 261.311 475.104V478.344ZM276.956 489H272.132V471.432H276.524V472.332C277.268 471.492 278.396 471.072 279.908 471.072H280.664C283.64 471.072 285.128 472.656 285.128 475.824V489H280.304V475.248C280.304 475.056 280.232 474.888 280.088 474.744C279.968 474.6 279.812 474.528 279.62 474.528H277.64C277.448 474.528 277.28 474.6 277.136 474.744C277.016 474.888 276.956 475.056 276.956 475.248V489ZM294.817 486.228H296.257V489.36H292.873C289.897 489.36 288.409 487.776 288.409 484.608V467.616H293.233V471.432H296.257V474.924H293.233V484.5C293.233 485.172 293.365 485.628 293.629 485.868C293.893 486.108 294.289 486.228 294.817 486.228ZM311.776 475.824V484.608C311.776 487.776 310.288 489.36 307.312 489.36H303.244C300.268 489.36 298.78 487.776 298.78 484.608V475.824C298.78 472.656 300.268 471.072 303.244 471.072H307.312C310.288 471.072 311.776 472.656 311.776 475.824ZM306.952 485.616V474.78C306.952 474.588 306.88 474.42 306.736 474.276C306.616 474.132 306.46 474.06 306.268 474.06H304.288C304.096 474.06 303.928 474.132 303.784 474.276C303.664 474.42 303.604 474.588 303.604 474.78V485.616C303.604 485.808 303.664 485.976 303.784 486.12C303.928 486.264 304.096 486.336 304.288 486.336H306.268C306.46 486.336 306.616 486.264 306.736 486.12C306.88 485.976 306.952 485.808 306.952 485.616Z" fill="white"/>
<rect x="13" y="627" width="334" height="36" fill="#D9D9D9" stroke="#AC232D" stroke-width="4"/>
<path d="M325.809 654.541L315.763 640.622L336.217 640.825L325.809 654.541Z" fill="#AC232D"/>
<path d="M28.724 588.828H23.936V586.992C23.936 586.8 23.864 586.632 23.72 586.488C23.6 586.344 23.444 586.272 23.252 586.272H21.272C21.08 586.272 20.912 586.344 20.768 586.488C20.648 586.632 20.588 586.8 20.588 586.992V591.132C20.588 591.324 20.648 591.492 20.768 591.636C20.912 591.78 21.08 591.852 21.272 591.852H24.512C27.488 591.9 28.976 593.484 28.976 596.604V601.608C28.976 604.776 27.488 606.36 24.512 606.36H20.264C17.288 606.36 15.8 604.776 15.8 601.608V599.196H20.588V601.788C20.588 601.98 20.648 602.148 20.768 602.292C20.912 602.436 21.08 602.508 21.272 602.508H23.504C23.696 602.508 23.852 602.436 23.972 602.292C24.116 602.148 24.188 601.98 24.188 601.788V597.216C24.188 597.024 24.116 596.856 23.972 596.712C23.852 596.568 23.696 596.496 23.504 596.496H20.264C17.288 596.496 15.8 594.912 15.8 591.744V587.1C15.8 583.932 17.288 582.348 20.264 582.348H24.26C27.236 582.348 28.724 583.932 28.724 587.1V588.828ZM40.6403 588.072C43.6163 588.072 45.1043 589.656 45.1043 592.824V598.512H36.9323V602.184C36.9323 602.376 36.9923 602.544 37.1123 602.688C37.2563 602.832 37.4243 602.904 37.6163 602.904H39.5963C39.7883 602.904 39.9443 602.832 40.0643 602.688C40.2083 602.544 40.2803 602.376 40.2803 602.184V600.24H45.1043V601.608C45.1043 604.776 43.6163 606.36 40.6403 606.36H36.5723C33.5963 606.36 32.1083 604.776 32.1083 601.608V592.824C32.1083 589.656 33.5963 588.072 36.5723 588.072H40.6403ZM36.9323 595.344H40.2803V592.104C40.2803 591.912 40.2083 591.744 40.0643 591.6C39.9443 591.456 39.7883 591.384 39.5963 591.384H37.6163C37.4243 591.384 37.2563 591.456 37.1123 591.6C36.9923 591.744 36.9323 591.912 36.9323 592.104V595.344ZM52.5768 606H47.7528V582.708H52.5768V606ZM64.3356 588.072C67.3116 588.072 68.7996 589.656 68.7996 592.824V598.512H60.6276V602.184C60.6276 602.376 60.6876 602.544 60.8076 602.688C60.9516 602.832 61.1196 602.904 61.3116 602.904H63.2916C63.4836 602.904 63.6396 602.832 63.7596 602.688C63.9036 602.544 63.9756 602.376 63.9756 602.184V600.24H68.7996V601.608C68.7996 604.776 67.3116 606.36 64.3356 606.36H60.2676C57.2916 606.36 55.8036 604.776 55.8036 601.608V592.824C55.8036 589.656 57.2916 588.072 60.2676 588.072H64.3356ZM60.6276 595.344H63.9756V592.104C63.9756 591.912 63.9036 591.744 63.7596 591.6C63.6396 591.456 63.4836 591.384 63.2916 591.384H61.3116C61.1196 591.384 60.9516 591.456 60.8076 591.6C60.6876 591.744 60.6276 591.912 60.6276 592.104V595.344ZM84.4441 595.344H79.6201V592.248C79.6201 592.056 79.5481 591.888 79.4041 591.744C79.2841 591.6 79.1281 591.528 78.9361 591.528H76.9561C76.7641 591.528 76.5961 591.6 76.4521 591.744C76.3321 591.888 76.2721 592.056 76.2721 592.248V602.184C76.2721 602.376 76.3321 602.544 76.4521 602.688C76.5961 602.832 76.7641 602.904 76.9561 602.904H78.9361C79.1281 602.904 79.2841 602.832 79.4041 602.688C79.5481 602.544 79.6201 602.376 79.6201 602.184V599.088H84.4441V601.608C84.4441 604.776 82.9561 606.36 79.9801 606.36H75.9121C72.9361 606.36 71.4481 604.776 71.4481 601.608V592.824C71.4481 589.656 72.9361 588.072 75.9121 588.072H79.9801C82.9561 588.072 84.4441 589.656 84.4441 592.824V595.344ZM100.511 595.344H95.6865V592.248C95.6865 592.056 95.6145 591.888 95.4705 591.744C95.3505 591.6 95.1945 591.528 95.0025 591.528H93.0225C92.8305 591.528 92.6625 591.6 92.5185 591.744C92.3985 591.888 92.3385 592.056 92.3385 592.248V602.184C92.3385 602.376 92.3985 602.544 92.5185 602.688C92.6625 602.832 92.8305 602.904 93.0225 602.904H95.0025C95.1945 602.904 95.3505 602.832 95.4705 602.688C95.6145 602.544 95.6865 602.376 95.6865 602.184V599.088H100.511V601.608C100.511 604.776 99.0225 606.36 96.0465 606.36H91.9785C89.0025 606.36 87.5145 604.776 87.5145 601.608V592.824C87.5145 589.656 89.0025 588.072 91.9785 588.072H96.0465C99.0225 588.072 100.511 589.656 100.511 592.824V595.344ZM108.477 586.236C107.973 586.74 107.361 586.992 106.641 586.992C105.921 586.992 105.297 586.74 104.769 586.236C104.241 585.708 103.977 585.084 103.977 584.364C103.977 583.62 104.241 582.996 104.769 582.492C105.297 581.964 105.921 581.7 106.641 581.7C107.361 581.7 107.973 581.964 108.477 582.492C109.005 582.996 109.269 583.62 109.269 584.364C109.269 585.108 109.005 585.732 108.477 586.236ZM104.229 606V588.432H109.053V606H104.229ZM125.436 592.824V601.608C125.436 604.776 123.948 606.36 120.972 606.36H116.904C113.928 606.36 112.44 604.776 112.44 601.608V592.824C112.44 589.656 113.928 588.072 116.904 588.072H120.972C123.948 588.072 125.436 589.656 125.436 592.824ZM120.612 602.616V591.78C120.612 591.588 120.54 591.42 120.396 591.276C120.276 591.132 120.12 591.06 119.928 591.06H117.948C117.756 591.06 117.588 591.132 117.444 591.276C117.324 591.42 117.264 591.588 117.264 591.78V602.616C117.264 602.808 117.324 602.976 117.444 603.12C117.588 603.264 117.756 603.336 117.948 603.336H119.928C120.12 603.336 120.276 603.264 120.396 603.12C120.54 602.976 120.612 602.808 120.612 602.616ZM133.542 606H128.718V588.432H133.11V589.332C133.854 588.492 134.982 588.072 136.494 588.072H137.25C140.226 588.072 141.714 589.656 141.714 592.824V606H136.89V592.248C136.89 592.056 136.818 591.888 136.674 591.744C136.554 591.6 136.398 591.528 136.206 591.528H134.226C134.034 591.528 133.866 591.6 133.722 591.744C133.602 591.888 133.542 592.056 133.542 592.248V606ZM157.492 588.072C158.716 588.072 159.7 588.36 160.444 588.936V582.708H165.268V606H161.2V604.704C160.456 605.808 159.22 606.36 157.492 606.36H156.736C153.76 606.36 152.272 604.776 152.272 601.608V592.824C152.272 589.656 153.76 588.072 156.736 588.072H157.492ZM160.444 602.184V592.248C160.444 592.056 160.372 591.888 160.228 591.744C160.108 591.6 159.952 591.528 159.76 591.528H157.78C157.588 591.528 157.42 591.6 157.276 591.744C157.156 591.888 157.096 592.056 157.096 592.248V602.184C157.096 602.376 157.156 602.544 157.276 602.688C157.42 602.832 157.588 602.904 157.78 602.904H159.76C159.952 602.904 160.108 602.832 160.228 602.688C160.372 602.544 160.444 602.376 160.444 602.184ZM177.082 588.072C180.058 588.072 181.546 589.656 181.546 592.824V598.512H173.374V602.184C173.374 602.376 173.434 602.544 173.554 602.688C173.698 602.832 173.866 602.904 174.058 602.904H176.038C176.23 602.904 176.386 602.832 176.506 602.688C176.65 602.544 176.722 602.376 176.722 602.184V600.24H181.546V601.608C181.546 604.776 180.058 606.36 177.082 606.36H173.014C170.038 606.36 168.55 604.776 168.55 601.608V592.824C168.55 589.656 170.038 588.072 173.014 588.072H177.082ZM173.374 595.344H176.722V592.104C176.722 591.912 176.65 591.744 176.506 591.6C176.386 591.456 176.23 591.384 176.038 591.384H174.058C173.866 591.384 173.698 591.456 173.554 591.6C173.434 591.744 173.374 591.912 173.374 592.104V595.344ZM200.4 588.432H204.468V606H200.4V604.704C199.656 605.808 198.42 606.36 196.692 606.36H195.936C192.96 606.36 191.472 604.776 191.472 601.608V592.824C191.472 589.656 192.96 588.072 195.936 588.072H196.692C198.42 588.072 199.656 588.624 200.4 589.728V588.432ZM199.644 602.184V592.248C199.644 592.056 199.572 591.888 199.428 591.744C199.308 591.6 199.152 591.528 198.96 591.528H196.98C196.788 591.528 196.62 591.6 196.476 591.744C196.356 591.888 196.296 592.056 196.296 592.248V602.184C196.296 602.376 196.356 602.544 196.476 602.688C196.62 602.832 196.788 602.904 196.98 602.904H198.96C199.152 602.904 199.308 602.832 199.428 602.688C199.572 602.544 199.644 602.376 199.644 602.184ZM220.745 595.344H215.921V592.248C215.921 592.056 215.849 591.888 215.705 591.744C215.585 591.6 215.429 591.528 215.237 591.528H213.257C213.065 591.528 212.897 591.6 212.753 591.744C212.633 591.888 212.573 592.056 212.573 592.248V602.184C212.573 602.376 212.633 602.544 212.753 602.688C212.897 602.832 213.065 602.904 213.257 602.904H215.237C215.429 602.904 215.585 602.832 215.705 602.688C215.849 602.544 215.921 602.376 215.921 602.184V599.088H220.745V601.608C220.745 604.776 219.257 606.36 216.281 606.36H212.213C209.237 606.36 207.749 604.776 207.749 601.608V592.824C207.749 589.656 209.237 588.072 212.213 588.072H216.281C219.257 588.072 220.745 589.656 220.745 592.824V595.344ZM230.223 603.228H231.663V606.36H228.279C225.303 606.36 223.815 604.776 223.815 601.608V584.616H228.639V588.432H231.663V591.924H228.639V601.5C228.639 602.172 228.771 602.628 229.035 602.868C229.299 603.108 229.695 603.228 230.223 603.228ZM239.082 586.236C238.578 586.74 237.966 586.992 237.246 586.992C236.526 586.992 235.902 586.74 235.374 586.236C234.846 585.708 234.582 585.084 234.582 584.364C234.582 583.62 234.846 582.996 235.374 582.492C235.902 581.964 236.526 581.7 237.246 581.7C237.966 581.7 238.578 581.964 239.082 582.492C239.61 582.996 239.874 583.62 239.874 584.364C239.874 585.108 239.61 585.732 239.082 586.236ZM234.834 606V588.432H239.658V606H234.834ZM251.146 588.432H255.826L251.974 606H245.602L241.75 588.432H246.43L248.806 602.076L251.146 588.432ZM262.813 586.236C262.309 586.74 261.697 586.992 260.977 586.992C260.257 586.992 259.633 586.74 259.105 586.236C258.577 585.708 258.313 585.084 258.313 584.364C258.313 583.62 258.577 582.996 259.105 582.492C259.633 581.964 260.257 581.7 260.977 581.7C261.697 581.7 262.309 581.964 262.813 582.492C263.341 582.996 263.605 583.62 263.605 584.364C263.605 585.108 263.341 585.732 262.813 586.236ZM258.565 606V588.432H263.389V606H258.565ZM271.996 588.072C273.22 588.072 274.204 588.36 274.948 588.936V582.708H279.772V606H275.704V604.704C274.96 605.808 273.724 606.36 271.996 606.36H271.24C268.264 606.36 266.776 604.776 266.776 601.608V592.824C266.776 589.656 268.264 588.072 271.24 588.072H271.996ZM274.948 602.184V592.248C274.948 592.056 274.876 591.888 274.732 591.744C274.612 591.6 274.456 591.528 274.264 591.528H272.284C272.092 591.528 271.924 591.6 271.78 591.744C271.66 591.888 271.6 592.056 271.6 592.248V602.184C271.6 602.376 271.66 602.544 271.78 602.688C271.924 602.832 272.092 602.904 272.284 602.904H274.264C274.456 602.904 274.612 602.832 274.732 602.688C274.876 602.544 274.948 602.376 274.948 602.184ZM291.982 588.432H296.05V606H291.982V604.704C291.238 605.808 290.002 606.36 288.274 606.36H287.518C284.542 606.36 283.054 604.776 283.054 601.608V592.824C283.054 589.656 284.542 588.072 287.518 588.072H288.274C290.002 588.072 291.238 588.624 291.982 589.728V588.432ZM291.226 602.184V592.248C291.226 592.056 291.154 591.888 291.01 591.744C290.89 591.6 290.734 591.528 290.542 591.528H288.562C288.37 591.528 288.202 591.6 288.058 591.744C287.938 591.888 287.878 592.056 287.878 592.248V602.184C287.878 602.376 287.938 602.544 288.058 602.688C288.202 602.832 288.37 602.904 288.562 602.904H290.542C290.734 602.904 290.89 602.832 291.01 602.688C291.154 602.544 291.226 602.376 291.226 602.184ZM304.551 588.072C305.775 588.072 306.759 588.36 307.503 588.936V582.708H312.327V606H308.259V604.704C307.515 605.808 306.279 606.36 304.551 606.36H303.795C300.819 606.36 299.331 604.776 299.331 601.608V592.824C299.331 589.656 300.819 588.072 303.795 588.072H304.551ZM307.503 602.184V592.248C307.503 592.056 307.431 591.888 307.287 591.744C307.167 591.6 307.011 591.528 306.819 591.528H304.839C304.647 591.528 304.479 591.6 304.335 591.744C304.215 591.888 304.155 592.056 304.155 592.248V602.184C304.155 602.376 304.215 602.544 304.335 602.688C304.479 602.832 304.647 602.904 304.839 602.904H306.819C307.011 602.904 307.167 602.832 307.287 602.688C307.431 602.544 307.503 602.376 307.503 602.184ZM324.14 588.072C327.116 588.072 328.604 589.656 328.604 592.824V598.512H320.432V602.184C320.432 602.376 320.492 602.544 320.612 602.688C320.756 602.832 320.924 602.904 321.116 602.904H323.096C323.288 602.904 323.444 602.832 323.564 602.688C323.708 602.544 323.78 602.376 323.78 602.184V600.24H328.604V601.608C328.604 604.776 327.116 606.36 324.14 606.36H320.072C317.096 606.36 315.608 604.776 315.608 601.608V592.824C315.608 589.656 317.096 588.072 320.072 588.072H324.14ZM320.432 595.344H323.78V592.104C323.78 591.912 323.708 591.744 323.564 591.6C323.444 591.456 323.288 591.384 323.096 591.384H321.116C320.924 591.384 320.756 591.456 320.612 591.6C320.492 591.744 320.432 591.912 320.432 592.104V595.344ZM339.533 594.984C342.509 594.984 343.997 596.568 343.997 599.736V601.608C343.997 604.776 342.509 606.36 339.533 606.36H335.537C332.561 606.36 331.073 604.776 331.073 601.608V600.492H335.537V602.076C335.537 602.268 335.597 602.436 335.717 602.58C335.861 602.724 336.029 602.796 336.221 602.796H339.173C339.365 602.796 339.521 602.724 339.641 602.58C339.785 602.436 339.857 602.268 339.857 602.076V599.916C339.857 599.724 339.785 599.556 339.641 599.412C339.521 599.268 339.365 599.196 339.173 599.196H335.465C332.489 599.196 331.001 597.612 331.001 594.444V592.824C331.001 589.656 332.489 588.072 335.465 588.072H339.245C342.221 588.072 343.709 589.656 343.709 592.824V593.472H339.245V592.356C339.245 592.164 339.173 591.996 339.029 591.852C338.909 591.708 338.753 591.636 338.561 591.636H335.825C335.633 591.636 335.465 591.708 335.321 591.852C335.201 591.996 335.141 592.164 335.141 592.356V594.264C335.141 594.456 335.201 594.624 335.321 594.768C335.465 594.912 335.633 594.984 335.825 594.984H339.533Z" fill="white"/>
<path d="M89.27 716.68H83.24V712.81C83.24 712.57 83.15 712.36 82.97 712.18C82.82 712 82.625 711.91 82.385 711.91H79.91C79.67 711.91 79.46 712 79.28 712.18C79.13 712.36 79.055 712.57 79.055 712.81V725.23C79.055 725.47 79.13 725.68 79.28 725.86C79.46 726.04 79.67 726.13 79.91 726.13H82.385C82.625 726.13 82.82 726.04 82.97 725.86C83.15 725.68 83.24 725.47 83.24 725.23V721.36H89.27V724.51C89.27 728.47 87.41 730.45 83.69 730.45H78.605C74.885 730.45 73.025 728.47 73.025 724.51V713.53C73.025 709.57 74.885 707.59 78.605 707.59H83.69C87.41 707.59 89.27 709.57 89.27 713.53V716.68ZM109.353 713.53V724.51C109.353 728.47 107.493 730.45 103.773 730.45H98.688C94.968 730.45 93.108 728.47 93.108 724.51V713.53C93.108 709.57 94.968 707.59 98.688 707.59H103.773C107.493 707.59 109.353 709.57 109.353 713.53ZM103.323 725.77V712.225C103.323 711.985 103.233 711.775 103.053 711.595C102.903 711.415 102.708 711.325 102.468 711.325H99.993C99.753 711.325 99.543 711.415 99.363 711.595C99.213 711.775 99.138 711.985 99.138 712.225V725.77C99.138 726.01 99.213 726.22 99.363 726.4C99.543 726.58 99.753 726.67 99.993 726.67H102.468C102.708 726.67 102.903 726.58 103.053 726.4C103.233 726.22 103.323 726.01 103.323 725.77ZM133.255 707.59C136.975 707.59 138.835 709.57 138.835 713.53V730H132.805V712.81C132.805 712.57 132.715 712.36 132.535 712.18C132.385 712 132.19 711.91 131.95 711.91H130.015C129.775 711.91 129.565 712 129.385 712.18C129.235 712.36 129.16 712.57 129.16 712.81V730H123.13V712.81C123.13 712.57 123.04 712.36 122.86 712.18C122.71 712 122.515 711.91 122.275 711.91H120.34C120.1 711.91 119.89 712 119.71 712.18C119.56 712.36 119.485 712.57 119.485 712.81V730H113.455V708.04H118.945V709.165C119.875 708.115 121.285 707.59 123.175 707.59H123.58C125.8 707.59 127.345 708.28 128.215 709.66C129.145 708.28 130.69 707.59 132.85 707.59H133.255ZM153.871 707.59C157.591 707.59 159.451 709.57 159.451 713.53V720.64H149.236V725.23C149.236 725.47 149.311 725.68 149.461 725.86C149.641 726.04 149.851 726.13 150.091 726.13H152.566C152.806 726.13 153.001 726.04 153.151 725.86C153.331 725.68 153.421 725.47 153.421 725.23V722.8H159.451V724.51C159.451 728.47 157.591 730.45 153.871 730.45H148.786C145.066 730.45 143.206 728.47 143.206 724.51V713.53C143.206 709.57 145.066 707.59 148.786 707.59H153.871ZM149.236 716.68H153.421V712.63C153.421 712.39 153.331 712.18 153.151 712C153.001 711.82 152.806 711.73 152.566 711.73H150.091C149.851 711.73 149.641 711.82 149.461 712C149.311 712.18 149.236 712.39 149.236 712.63V716.68ZM168.791 730H162.761V708.04H168.251V709.165C169.181 708.115 170.591 707.59 172.481 707.59H173.426C177.146 707.59 179.006 709.57 179.006 713.53V730H172.976V712.81C172.976 712.57 172.886 712.36 172.706 712.18C172.556 712 172.361 711.91 172.121 711.91H169.646C169.406 711.91 169.196 712 169.016 712.18C168.866 712.36 168.791 712.57 168.791 712.81V730ZM191.118 726.535H192.918V730.45H188.688C184.968 730.45 183.108 728.47 183.108 724.51V703.27H189.138V708.04H192.918V712.405H189.138V724.375C189.138 725.215 189.303 725.785 189.633 726.085C189.963 726.385 190.458 726.535 191.118 726.535ZM207.232 708.04H212.317V730H207.232V728.38C206.302 729.76 204.757 730.45 202.597 730.45H201.652C197.932 730.45 196.072 728.47 196.072 724.51V713.53C196.072 709.57 197.932 707.59 201.652 707.59H202.597C204.757 707.59 206.302 708.28 207.232 709.66V708.04ZM206.287 725.23V712.81C206.287 712.57 206.197 712.36 206.017 712.18C205.867 712 205.672 711.91 205.432 711.91H202.957C202.717 711.91 202.507 712 202.327 712.18C202.177 712.36 202.102 712.57 202.102 712.81V725.23C202.102 725.47 202.177 725.68 202.327 725.86C202.507 726.04 202.717 726.13 202.957 726.13H205.432C205.672 726.13 205.867 726.04 206.017 725.86C206.197 725.68 206.287 725.47 206.287 725.23ZM222.449 730H216.419V708.04H221.909V709.165C222.839 708.115 224.249 707.59 226.139 707.59H227.084C230.804 707.59 232.664 709.57 232.664 713.53V730H226.634V712.81C226.634 712.57 226.544 712.36 226.364 712.18C226.214 712 226.019 711.91 225.779 711.91H223.304C223.064 711.91 222.854 712 222.674 712.18C222.524 712.36 222.449 712.57 222.449 712.81V730ZM253.01 713.53V724.51C253.01 728.47 251.15 730.45 247.43 730.45H242.345C238.625 730.45 236.765 728.47 236.765 724.51V713.53C236.765 709.57 238.625 707.59 242.345 707.59H247.43C251.15 707.59 253.01 709.57 253.01 713.53ZM246.98 725.77V712.225C246.98 711.985 246.89 711.775 246.71 711.595C246.56 711.415 246.365 711.325 246.125 711.325H243.65C243.41 711.325 243.2 711.415 243.02 711.595C242.87 711.775 242.795 711.985 242.795 712.225V725.77C242.795 726.01 242.87 726.22 243.02 726.4C243.2 726.58 243.41 726.67 243.65 726.67H246.125C246.365 726.67 246.56 726.58 246.71 726.4C246.89 726.22 246.98 726.01 246.98 725.77ZM267.462 716.23C271.182 716.23 273.042 718.21 273.042 722.17V724.51C273.042 728.47 271.182 730.45 267.462 730.45H262.467C258.747 730.45 256.887 728.47 256.887 724.51V723.115H262.467V725.095C262.467 725.335 262.542 725.545 262.692 725.725C262.872 725.905 263.082 725.995 263.322 725.995H267.012C267.252 725.995 267.447 725.905 267.597 725.725C267.777 725.545 267.867 725.335 267.867 725.095V722.395C267.867 722.155 267.777 721.945 267.597 721.765C267.447 721.585 267.252 721.495 267.012 721.495H262.377C258.657 721.495 256.797 719.515 256.797 715.555V713.53C256.797 709.57 258.657 707.59 262.377 707.59H267.102C270.822 707.59 272.682 709.57 272.682 713.53V714.34H267.102V712.945C267.102 712.705 267.012 712.495 266.832 712.315C266.682 712.135 266.487 712.045 266.247 712.045H262.827C262.587 712.045 262.377 712.135 262.197 712.315C262.047 712.495 261.972 712.705 261.972 712.945V715.33C261.972 715.57 262.047 715.78 262.197 715.96C262.377 716.14 262.587 716.23 262.827 716.23H267.462ZM81.035 774.535H82.835V778.45H78.605C74.885 778.45 73.025 776.47 73.025 772.51V751.27H79.055V756.04H82.835V760.405H79.055V772.375C79.055 773.215 79.22 773.785 79.55 774.085C79.88 774.385 80.375 774.535 81.035 774.535ZM96.2039 756.04H102.234V778H96.7439V776.875C95.8139 777.925 94.4039 778.45 92.5139 778.45H91.5689C87.8489 778.45 85.9889 776.47 85.9889 772.51V756.04H92.0189V773.23C92.0189 773.47 92.0939 773.68 92.2439 773.86C92.4239 774.04 92.6339 774.13 92.8739 774.13H95.3489C95.5889 774.13 95.7839 774.04 95.9339 773.86C96.1139 773.68 96.2039 773.47 96.2039 773.23V756.04ZM131.677 761.53V772.51C131.677 776.47 129.817 778.45 126.097 778.45H121.012C117.292 778.45 115.432 776.47 115.432 772.51V761.53C115.432 757.57 117.292 755.59 121.012 755.59H126.097C129.817 755.59 131.677 757.57 131.677 761.53ZM125.647 773.77V760.225C125.647 759.985 125.557 759.775 125.377 759.595C125.227 759.415 125.032 759.325 124.792 759.325H122.317C122.077 759.325 121.867 759.415 121.687 759.595C121.537 759.775 121.462 759.985 121.462 760.225V773.77C121.462 774.01 121.537 774.22 121.687 774.4C121.867 774.58 122.077 774.67 122.317 774.67H124.792C125.032 774.67 125.227 774.58 125.377 774.4C125.557 774.22 125.647 774.01 125.647 773.77ZM145.499 755.59H146.444C150.164 755.59 152.024 757.57 152.024 761.53V772.51C152.024 776.47 150.164 778.45 146.444 778.45H145.499C143.339 778.45 141.794 777.76 140.864 776.38V778H135.779V748.885H141.809V756.67C142.769 755.95 143.999 755.59 145.499 755.59ZM141.809 760.81V773.23C141.809 773.47 141.884 773.68 142.034 773.86C142.214 774.04 142.424 774.13 142.664 774.13H145.139C145.379 774.13 145.574 774.04 145.724 773.86C145.904 773.68 145.994 773.47 145.994 773.23V760.81C145.994 760.57 145.904 760.36 145.724 760.18C145.574 760 145.379 759.91 145.139 759.91H142.664C142.424 759.91 142.214 760 142.034 760.18C141.884 760.36 141.809 760.57 141.809 760.81ZM157.431 779.035V756.04H163.461V779.665C163.461 783.625 161.601 785.605 157.881 785.605H154.236V781.195H155.451C156.111 781.195 156.606 781.045 156.936 780.745C157.266 780.445 157.431 779.875 157.431 779.035ZM162.741 753.295C162.111 753.925 161.346 754.24 160.446 754.24C159.546 754.24 158.766 753.925 158.106 753.295C157.446 752.635 157.116 751.855 157.116 750.955C157.116 750.025 157.446 749.245 158.106 748.615C158.766 747.955 159.546 747.625 160.446 747.625C161.346 747.625 162.111 747.955 162.741 748.615C163.401 749.245 163.731 750.025 163.731 750.955C163.731 751.885 163.401 752.665 162.741 753.295ZM178.7 755.59C182.42 755.59 184.28 757.57 184.28 761.53V768.64H174.065V773.23C174.065 773.47 174.14 773.68 174.29 773.86C174.47 774.04 174.68 774.13 174.92 774.13H177.395C177.635 774.13 177.83 774.04 177.98 773.86C178.16 773.68 178.25 773.47 178.25 773.23V770.8H184.28V772.51C184.28 776.47 182.42 778.45 178.7 778.45H173.615C169.895 778.45 168.035 776.47 168.035 772.51V761.53C168.035 757.57 169.895 755.59 173.615 755.59H178.7ZM174.065 764.68H178.25V760.63C178.25 760.39 178.16 760.18 177.98 760C177.83 759.82 177.635 759.73 177.395 759.73H174.92C174.68 759.73 174.47 759.82 174.29 760C174.14 760.18 174.065 760.39 174.065 760.63V764.68ZM195.6 774.535H197.4V778.45H193.17C189.45 778.45 187.59 776.47 187.59 772.51V751.27H193.62V756.04H197.4V760.405H193.62V772.375C193.62 773.215 193.785 773.785 194.115 774.085C194.445 774.385 194.94 774.535 195.6 774.535ZM206.674 753.295C206.044 753.925 205.279 754.24 204.379 754.24C203.479 754.24 202.699 753.925 202.039 753.295C201.379 752.635 201.049 751.855 201.049 750.955C201.049 750.025 201.379 749.245 202.039 748.615C202.699 747.955 203.479 747.625 204.379 747.625C205.279 747.625 206.044 747.955 206.674 748.615C207.334 749.245 207.664 750.025 207.664 750.955C207.664 751.885 207.334 752.665 206.674 753.295ZM201.364 778V756.04H207.394V778H201.364ZM221.754 756.04H227.604L222.789 778H214.824L210.009 756.04H215.859L218.829 773.095L221.754 756.04ZM246.462 761.53V772.51C246.462 776.47 244.602 778.45 240.882 778.45H235.797C232.077 778.45 230.217 776.47 230.217 772.51V761.53C230.217 757.57 232.077 755.59 235.797 755.59H240.882C244.602 755.59 246.462 757.57 246.462 761.53ZM240.432 773.77V760.225C240.432 759.985 240.342 759.775 240.162 759.595C240.012 759.415 239.817 759.325 239.577 759.325H237.102C236.862 759.325 236.652 759.415 236.472 759.595C236.322 759.775 236.247 759.985 236.247 760.225V773.77C236.247 774.01 236.322 774.22 236.472 774.4C236.652 774.58 236.862 774.67 237.102 774.67H239.577C239.817 774.67 240.012 774.58 240.162 774.4C240.342 774.22 240.432 774.01 240.432 773.77Z" fill="white"/>
<path d="M14 789.806H315C333.225 789.806 348 804.581 348 822.806V919H47C28.7746 919 14 904.225 14 886V789.806Z" fill="#D9D9D9" stroke="#AC232D" stroke-width="4"/>
<rect x="12" y="963" width="338" height="40" rx="20" fill="#AC232D"/>
<rect x="12" y="1015" width="338" height="40" rx="20" fill="#AC232D"/>
<rect x="12" y="1067" width="338" height="40" rx="20" fill="#AC232D"/>
<path d="M148.84 984.856V994H143.8V970.708H148.84V980.464H152.836V970.708H157.876V994H152.836V984.856H148.84ZM175.2 975.1V989.608C175.2 992.776 173.712 994.36 170.736 994.36H165.948C162.972 994.36 161.484 992.776 161.484 989.608V975.1C161.484 971.932 162.972 970.348 165.948 970.348H170.736C173.712 970.348 175.2 971.932 175.2 975.1ZM170.16 990.184V974.488C170.16 974.296 170.088 974.128 169.944 973.984C169.824 973.84 169.668 973.768 169.476 973.768H167.208C167.016 973.768 166.848 973.84 166.704 973.984C166.584 974.128 166.524 974.296 166.524 974.488V990.184C166.524 990.376 166.584 990.544 166.704 990.688C166.848 990.832 167.016 990.904 167.208 990.904H169.476C169.668 990.904 169.824 990.832 169.944 990.688C170.088 990.544 170.16 990.376 170.16 990.184ZM183.925 994H178.885V975.1C178.885 971.932 180.373 970.348 183.349 970.348H186.013C187.765 970.348 189.013 970.924 189.757 972.076C190.453 970.924 191.701 970.348 193.501 970.348H196.165C199.141 970.348 200.629 971.932 200.629 975.1V994H195.589V974.668C195.589 974.476 195.517 974.308 195.373 974.164C195.253 974.02 195.097 973.948 194.905 973.948H192.961C192.769 973.948 192.601 974.02 192.457 974.164C192.337 974.308 192.277 974.476 192.277 974.668V994H187.237V974.668C187.237 974.476 187.165 974.308 187.021 974.164C186.901 974.02 186.745 973.948 186.553 973.948H184.609C184.417 973.948 184.249 974.02 184.105 974.164C183.985 974.308 183.925 974.476 183.925 974.668V994ZM209.133 989.824H214.713V994H204.093V970.708H214.713V974.812H209.133V980.284H214.353V984.244H209.133V989.824Z" fill="white"/>
<path d="M109.052 1022.35C112.028 1022.35 113.516 1023.93 113.516 1027.1V1046H108.476V1038.19H104.84V1046H99.8V1027.1C99.8 1023.93 101.288 1022.35 104.264 1022.35H109.052ZM104.84 1034.3H108.476V1026.49C108.476 1026.3 108.404 1026.13 108.26 1025.98C108.14 1025.84 107.984 1025.77 107.792 1025.77H105.524C105.332 1025.77 105.164 1025.84 105.02 1025.98C104.9 1026.13 104.84 1026.3 104.84 1026.49V1034.3ZM125.949 1042.18V1038.58H130.737V1041.61C130.737 1044.78 129.249 1046.36 126.273 1046.36H121.737C118.761 1046.36 117.273 1044.78 117.273 1041.61V1027.1C117.273 1023.93 118.761 1022.35 121.737 1022.35H126.273C129.249 1022.35 130.737 1023.93 130.737 1027.1V1029.3H125.949V1026.49C125.949 1026.3 125.877 1026.13 125.733 1025.98C125.613 1025.84 125.457 1025.77 125.265 1025.77H122.997C122.805 1025.77 122.637 1025.84 122.493 1025.98C122.373 1026.13 122.313 1026.3 122.313 1026.49V1042.18C122.313 1042.38 122.373 1042.54 122.493 1042.69C122.637 1042.83 122.805 1042.9 122.997 1042.9H125.265C125.457 1042.9 125.613 1042.83 125.733 1042.69C125.877 1042.54 125.949 1042.38 125.949 1042.18ZM132.429 1026.99V1022.71H145.029V1026.99H141.249V1046H136.209V1026.99H132.429ZM152.371 1022.71V1046H147.331V1022.71H152.371ZM165.516 1022.71H170.376L165.552 1046H159.756L154.932 1022.71H159.828L162.672 1039.7L165.516 1022.71ZM177.895 1022.71V1046H172.855V1022.71H177.895ZM190.896 1022.71C193.872 1022.71 195.36 1024.29 195.36 1027.46V1041.25C195.36 1044.42 193.872 1046 190.896 1046H181.644V1022.71H190.896ZM190.32 1041.82V1026.85C190.32 1026.66 190.248 1026.49 190.104 1026.34C189.984 1026.2 189.828 1026.13 189.636 1026.13H186.684V1042.54H189.636C189.828 1042.54 189.984 1042.47 190.104 1042.33C190.248 1042.18 190.32 1042.02 190.32 1041.82ZM208.368 1022.35C211.344 1022.35 212.832 1023.93 212.832 1027.1V1046H207.792V1038.19H204.156V1046H199.116V1027.1C199.116 1023.93 200.604 1022.35 203.58 1022.35H208.368ZM204.156 1034.3H207.792V1026.49C207.792 1026.3 207.72 1026.13 207.576 1025.98C207.456 1025.84 207.3 1025.77 207.108 1025.77H204.84C204.648 1025.77 204.48 1025.84 204.336 1025.98C204.216 1026.13 204.156 1026.3 204.156 1026.49V1034.3ZM225.841 1022.71C228.817 1022.71 230.305 1024.29 230.305 1027.46V1041.25C230.305 1044.42 228.817 1046 225.841 1046H216.589V1022.71H225.841ZM225.265 1041.82V1026.85C225.265 1026.66 225.193 1026.49 225.049 1026.34C224.929 1026.2 224.773 1026.13 224.581 1026.13H221.629V1042.54H224.581C224.773 1042.54 224.929 1042.47 225.049 1042.33C225.193 1042.18 225.265 1042.02 225.265 1041.82ZM239.102 1041.82H244.682V1046H234.062V1022.71H244.682V1026.81H239.102V1032.28H244.322V1036.24H239.102V1041.82ZM260.521 1028.83H255.733V1026.99C255.733 1026.8 255.661 1026.63 255.517 1026.49C255.397 1026.34 255.241 1026.27 255.049 1026.27H253.069C252.877 1026.27 252.709 1026.34 252.565 1026.49C252.445 1026.63 252.385 1026.8 252.385 1026.99V1031.13C252.385 1031.32 252.445 1031.49 252.565 1031.64C252.709 1031.78 252.877 1031.85 253.069 1031.85H256.309C259.285 1031.9 260.773 1033.48 260.773 1036.6V1041.61C260.773 1044.78 259.285 1046.36 256.309 1046.36H252.061C249.085 1046.36 247.597 1044.78 247.597 1041.61V1039.2H252.385V1041.79C252.385 1041.98 252.445 1042.15 252.565 1042.29C252.709 1042.44 252.877 1042.51 253.069 1042.51H255.301C255.493 1042.51 255.649 1042.44 255.769 1042.29C255.913 1042.15 255.985 1041.98 255.985 1041.79V1037.22C255.985 1037.02 255.913 1036.86 255.769 1036.71C255.649 1036.57 255.493 1036.5 255.301 1036.5H252.061C249.085 1036.5 247.597 1034.91 247.597 1031.74V1027.1C247.597 1023.93 249.085 1022.35 252.061 1022.35H256.057C259.033 1022.35 260.521 1023.93 260.521 1027.1V1028.83Z" fill="white"/>
<path d="M95.872 1074.71C98.848 1074.71 100.336 1076.29 100.336 1079.46V1084.1C100.336 1087.27 98.848 1088.86 95.872 1088.86H91.804V1098H86.764V1074.71H95.872ZM95.296 1084.68V1078.88C95.296 1078.69 95.224 1078.52 95.08 1078.38C94.96 1078.24 94.804 1078.16 94.612 1078.16H91.804V1085.4H94.612C94.804 1085.4 94.96 1085.33 95.08 1085.18C95.224 1085.04 95.296 1084.87 95.296 1084.68ZM112.118 1074.35C115.094 1074.35 116.582 1075.93 116.582 1079.1V1098H111.542V1090.19H107.906V1098H102.866V1079.1C102.866 1075.93 104.354 1074.35 107.33 1074.35H112.118ZM107.906 1086.3H111.542V1078.49C111.542 1078.3 111.47 1078.13 111.326 1077.98C111.206 1077.84 111.05 1077.77 110.858 1077.77H108.59C108.398 1077.77 108.23 1077.84 108.086 1077.98C107.966 1078.13 107.906 1078.3 107.906 1078.49V1086.3ZM133.263 1080.83H128.475V1078.99C128.475 1078.8 128.403 1078.63 128.259 1078.49C128.139 1078.34 127.983 1078.27 127.791 1078.27H125.811C125.619 1078.27 125.451 1078.34 125.307 1078.49C125.187 1078.63 125.127 1078.8 125.127 1078.99V1083.13C125.127 1083.32 125.187 1083.49 125.307 1083.64C125.451 1083.78 125.619 1083.85 125.811 1083.85H129.051C132.027 1083.9 133.515 1085.48 133.515 1088.6V1093.61C133.515 1096.78 132.027 1098.36 129.051 1098.36H124.803C121.827 1098.36 120.339 1096.78 120.339 1093.61V1091.2H125.127V1093.79C125.127 1093.98 125.187 1094.15 125.307 1094.29C125.451 1094.44 125.619 1094.51 125.811 1094.51H128.043C128.235 1094.51 128.391 1094.44 128.511 1094.29C128.655 1094.15 128.727 1093.98 128.727 1093.79V1089.22C128.727 1089.02 128.655 1088.86 128.511 1088.71C128.391 1088.57 128.235 1088.5 128.043 1088.5H124.803C121.827 1088.5 120.339 1086.91 120.339 1083.74V1079.1C120.339 1075.93 121.827 1074.35 124.803 1074.35H128.799C131.775 1074.35 133.263 1075.93 133.263 1079.1V1080.83ZM141.867 1093.82H147.447V1098H136.827V1074.71H147.447V1078.81H141.867V1084.28H147.087V1088.24H141.867V1093.82ZM166.892 1074.71C169.868 1074.71 171.356 1076.29 171.356 1079.46V1093.25C171.356 1096.42 169.868 1098 166.892 1098H157.64V1074.71H166.892ZM166.316 1093.82V1078.85C166.316 1078.66 166.244 1078.49 166.1 1078.34C165.98 1078.2 165.824 1078.13 165.632 1078.13H162.68V1094.54H165.632C165.824 1094.54 165.98 1094.47 166.1 1094.33C166.244 1094.18 166.316 1094.02 166.316 1093.82ZM180.153 1093.82H185.733V1098H175.113V1074.71H185.733V1078.81H180.153V1084.28H185.373V1088.24H180.153V1093.82ZM204.997 1074.71C207.973 1074.71 209.461 1076.29 209.461 1079.46V1084.1C209.461 1087.27 207.973 1088.86 204.997 1088.86H200.929V1098H195.889V1074.71H204.997ZM204.421 1084.68V1078.88C204.421 1078.69 204.349 1078.52 204.205 1078.38C204.085 1078.24 203.929 1078.16 203.737 1078.16H200.929V1085.4H203.737C203.929 1085.4 204.085 1085.33 204.205 1085.18C204.349 1085.04 204.421 1084.87 204.421 1084.68ZM220.307 1074.71H225.347V1093.61C225.347 1096.78 223.859 1098.36 220.883 1098.36H216.419C213.443 1098.36 211.955 1096.78 211.955 1093.61V1074.71H216.995V1094.04C216.995 1094.23 217.055 1094.4 217.175 1094.54C217.319 1094.69 217.487 1094.76 217.679 1094.76H219.623C219.815 1094.76 219.971 1094.69 220.091 1094.54C220.235 1094.4 220.307 1094.23 220.307 1094.04V1074.71ZM233.836 1093.82H239.416V1098H228.796V1074.71H239.416V1078.81H233.836V1084.28H239.056V1088.24H233.836V1093.82ZM253.707 1085.26C255.267 1085.81 256.047 1087.08 256.047 1089.07V1093.25C256.047 1096.42 254.559 1098 251.583 1098H242.331V1074.71H251.295C254.271 1074.71 255.759 1076.29 255.759 1079.46V1081.58C255.759 1083.5 255.075 1084.73 253.707 1085.26ZM250.035 1078.13H247.371V1084.36H250.035C250.227 1084.36 250.383 1084.28 250.503 1084.14C250.647 1084 250.719 1083.83 250.719 1083.64V1078.85C250.719 1078.66 250.647 1078.49 250.503 1078.34C250.383 1078.2 250.227 1078.13 250.035 1078.13ZM251.007 1093.82V1088.6C251.007 1088.41 250.935 1088.24 250.791 1088.1C250.671 1087.96 250.515 1087.88 250.323 1087.88H247.371V1094.54H250.323C250.515 1094.54 250.671 1094.47 250.791 1094.33C250.935 1094.18 251.007 1094.02 251.007 1093.82ZM268.74 1074.35C271.716 1074.35 273.204 1075.93 273.204 1079.1V1098H268.164V1090.19H264.528V1098H259.488V1079.1C259.488 1075.93 260.976 1074.35 263.952 1074.35H268.74ZM264.528 1086.3H268.164V1078.49C268.164 1078.3 268.092 1078.13 267.948 1077.98C267.828 1077.84 267.672 1077.77 267.48 1077.77H265.212C265.02 1077.77 264.852 1077.84 264.708 1077.98C264.588 1078.13 264.528 1078.3 264.528 1078.49V1086.3Z" fill="white"/>
</svg>
